<?xml version="1.0" encoding="UTF-8"?><svg id="Capa_2" xmlns="http://www.w3.org/2000/svg" viewBox="0 0 478.59 332.53"><defs><style>.cls-1{fill:#fff;}.cls-2{fill:#bb9458;}.cls-3{fill:#09080a;}</style></defs><g id="Capa_1-2"><path class="cls-3" d="M72.17,182.23c2.35-.66,4.78-.68,7.16-.94,5.13-.56,10.27-1.02,15.41-1.48,4.06-.36,8.12-.72,12.19-.95,1.15-.07,1.44-.44,1.54-1.52,.14-1.67,.18-3.18-1.22-4.45-.84-.76-.88-1.95-.89-3.05-.03-4.79-.93-9.44-2.35-14-.48-1.55-1.25-2.98-1.44-4.64-.24-2.13,.25-3.92,1.92-5.29,2-1.63,3.96-3.34,6.09-4.78,2.61-1.76,3.63-4.26,4.06-7.19,.59-3.97,.84-7.97,1.17-11.96,.78-9.51,3.37-18.38,8.89-26.28,.3-.43,1.13-.99,.52-1.5-.61-.52-1.05,.38-1.41,.75-3.5,3.55-6.69,7.33-8.7,11.95-.31,.72-.77,1.28-1.28,1.81-6.73,7.01-13.42,14.06-20.24,20.99-4.7,4.78-10.14,8.58-16.16,11.56-8.03,3.99-16.11,3.53-24.23,.39-1.05-.41-2.13-.91-2.51-2.14,.6-.64,1.27-.53,1.94-.39,1.39,.3,2.76,.68,4.16,.91,9.65,1.61,18.14-.79,25.44-7.34,6.91-6.2,12.94-13.18,18.64-20.47,3.93-5.03,7.91-10.03,12.09-14.86,8.21-9.5,18.56-15.44,30.51-18.89,5.24-1.51,10.59-2.27,15.99-2.86,14.56-1.59,29.17-1.58,43.78-1.62,9.99-.03,19.99-.05,29.98-.14,10.81-.1,21.61-.24,32.41-.7,5.57-.24,11.14-.45,16.69-.88,2.62-.2,5.21-.87,7.8-1.35,.32-.06,.67-.19,.93-.39,2.77-2.15,5.98-3.44,9.23-4.62,1.19-.43,1.82-1.09,2.26-2.29,3.73-10.25,7.21-20.59,11.18-30.76,1.45-3.73,3-7.41,4.84-10.97,2.84-5.47,6.46-10.36,10.79-14.73,4.41-4.45,9.9-6.43,16.04-7.03,9.66-.94,18.3,2.19,26.68,6.44,1.46,.74,2.51,1.83,3.15,3.32,.19,.44,.4,.86,.59,1.3,.64,1.5,1.65,2.51,3.25,3.11,2.41,.9,4.7,2.08,7.09,3.04,4.55,1.83,8.71,4.36,12.86,6.93,2.94,1.82,5.83,3.71,8.89,5.33,2.24,1.19,2.61,3.11,.66,4.76-3.51,2.98-7.33,5.58-11.33,7.88-1.25,.72-2.72,.78-4.16,.73-5.87-.2-11.64,.75-17.43,1.5-2.89,.37-5.77,.85-8.66,1.21-.87,.11-1.12,.43-1.02,1.29,.16,1.41,.41,2.83,.23,4.26-.25,1.95-.84,2.53-2.84,2.8-2.23,.3-4.31-.27-6.32-1.14-2.67-1.16-5.18-2.66-7.76-4-3.4-1.76-5.57-4.5-6.81-8.01-1.22-3.45-2.6-6.85-3.1-10.52-.04-.32-.12-.66-.41-.89-.47,2.41-.3,4.87,.66,8.85,.38,1.58,.84,3.14,1.24,4.72,.69,2.74,2.17,4.92,4.39,6.67,2.24,1.77,4.54,3.46,6.94,5,2.1,1.35,2.98,3.07,2.81,5.62-.35,5.57,.14,11.13,.64,16.68,.62,6.83,1.23,13.67,.96,20.55-.31,7.69-1.74,15.07-5.84,21.77-1.52,2.49-2.98,5.02-4.58,7.46-4.74,7.24-11.38,11.87-19.56,14.44-2.19,.69-4.39,1.39-6.6,1.99-.79,.21-1.16,.62-1.27,1.36-.45,2.93-2,5.29-3.81,7.53-1.53,1.9-3.06,3.82-4.52,5.77-.94,1.25-1.79,2.56-2.38,4.02-1.23,3.06-.72,4.76,1.98,6.64,.89,.62,1.81,1.2,2.68,1.85,1.59,1.18,3.03,2.52,3.97,4.31,.48,.92,1.16,1.32,2.25,1.36,4.28,.17,8.55,.42,12.82,.68,5.63,.35,11.26,.72,16.88,1.1,4.34,.3,8.68,.58,13.01,.95,5.28,.45,10.55,.96,15.82,1.49,4.32,.43,8.65,.85,12.96,1.39,1.77,.22,3.61,.14,5.59,1.04-4.4,0-8.47,.13-12.52-.03-7.14-.28-14.27-.14-21.41-.33-13.05-.34-26.1-.23-39.15-.49-11.08-.22-22.16-.21-33.24-.28-8.91-.05-17.81-.06-26.72-.1-15.29-.06-30.59-.21-45.88-.18-24.2,.05-48.41,.13-72.61,.36-14,.13-28.01,.21-42.01,.48-9.85,.19-19.71,.16-29.56,.43-.25,0-.54,.1-.71-.39Zm55.12-90.3c-.67,.16-1.11,.63-1.47,1.17-.09,.08-.2,.16-.28,.25-.17,.22-.59,.4-.25,.74,.34,.34,.53-.07,.75-.25,.09-.08,.15-.2,.23-.3,.53-.41,1.01-.85,1.08-1.57,.17-.06,.37-.1,.14-.33l-.19,.27Zm235.57-59.08c.05,.46,.14,.9,.55,1.24,.29-.71,.1-1.32-.24-1.91-.77-5.23-1.26-10.5-1.73-15.77-.37-4.11-2.44-6.74-6.51-7.82-1.43-.38-2.87-.58-4.25-.87,.86,.49,1.78,1.02,2.69,1.55,2.9,1.69,4.75,4.06,5.42,7.46,1.06,5.44,2.11,10.9,4.06,16.13Zm-69.56,105.53c-1.17,.89-1.71,2.23-2.37,3.46-.96,1.79-1.95,3.58-2.73,5.45-.65,1.57-1.76,2.27-3.32,2.64-3.31,.79-6.67,1.26-10.05,1.48-7.02,.45-13.98-.18-20.84-1.73-10.3-2.32-20.57-4.74-30.91-6.89-15.57-3.24-31.11-6.64-46.68-9.93-4.73-1-9.43-.91-14.01,.9-.77,.31-1.56,.78-2.71,.58,3.74-5.75,6.5-11.98,11.75-16.52-.45-.29-.68-.1-.92,0-4.24,2.03-7.82,4.88-10.58,8.71-1.39,1.93-2.71,3.91-4.13,5.81-4.63,6.2-10.28,11.14-17.54,14.12-5.2,2.13-10.32,4.45-15.46,6.7-1.5,.66-2.96,1.4-4.65,2.21,1.35,.57,2.31,1.18,2.55,2.47,.42,2.27,.95,4.52,1.24,6.8,.2,1.56,.84,2.69,2.16,3.47,1.23,.72,2.46,1.43,3.7,2.14,1.57,.89,2.86,2.02,3.67,3.69,.38,.78,1.02,1.43,1.51,2.17,.5,.75,1.12,1.01,2.06,.91,1.62-.18,3.25-.19,4.88-.27,2.99-.14,5.96-.49,8.96-.42,.85,.02,1.19-.33,1.28-1.17,.09-.83,.01-1.43-.89-1.78-1.45-.55-1.96-1.68-2-3.21-.06-2.35-.76-4.53-2.21-6.43-1.15-1.51-2.1-3.16-3.35-4.61-.95-1.11-.91-2.33-.06-3.56,.42-.61,.94-1.16,1.38-1.77,1.09-1.5,2.01-3.08,1.89-5.04-.07-1.02,.42-1.6,1.3-2.07,3.23-1.73,6.38-3.61,9.2-5.97,1.81-1.52,3.88-2.47,6.12-3.09,1.24-.34,2.52-.56,3.74-.94,3.36-1.06,6.63-.43,9.99,.24-1.21,4.93-3.43,9.13-7.04,12.55-2.63,2.49-5.64,4.47-8.63,6.47-.89,.59-1.79,1.17-2.8,1.83,1.01,.8,1.47,1.76,1.95,2.74,1.17,2.43,2.81,4.4,5.21,5.81,1.66,.97,3.39,1.66,5.18,2.27,2.48,.84,4.53,2.31,5.43,4.83,.5,1.41,1.18,1.77,2.61,1.73,11-.31,22.01-.63,33.02-.75,12.78-.14,25.56-.11,38.34-.12,13.25,0,26.5,.31,39.75,.68,.84,.02,1.69,.21,2.55-.03-.79-2.29-.81-2.29-.36-4.64,.22-1.13,.54-2.24,.77-3.37,.27-1.37,.18-1.56-1.15-2.06-1.1-.41-1.63-1.15-1.62-2.31,0-.75,.04-1.49,.2-2.23,.82-3.78,1.6-7.56,2.42-11.34,.77-3.51,1.58-7,2.37-10.5,.28-.16,.33-.54,.14-.62-.3-.12-.27,.25-.32,.46Zm33.77-16.26c-.2,.7-.42,1.27-.54,1.86-.59,3.15-1.87,5.93-4.17,8.21-.38,.38-.68,.85-.97,1.31-.72,1.17-1.26,2.41-1.48,4.19,1.95-1.77,3.63-3.24,5.24-4.78,1.36-1.3,2.25-2.91,2.39-4.82,.15-1.97,.09-3.93-.48-5.97Z"/><path class="cls-2" d="M0,250.99c0-9.79,0-19.57,0-29.36,0-.48,.03-.95,0-1.43-.05-.8,.34-1.1,1.1-1.05,.27,.02,.54,0,.82,0,7.62,0,15.23,.02,22.85,0,6.16-.02,12.04,1.19,17.42,4.24,9.4,5.34,14.36,13.55,15.38,24.24,.53,5.57-.09,11.01-2.28,16.17-4.3,10.11-12.11,15.93-22.73,18.17-2.8,.59-5.64,.8-8.51,.79-7.21-.02-14.41,0-21.62,0-.48,0-.95-.02-1.43,0-.68,.02-1-.29-.98-.97,.01-.54,0-1.09,0-1.63,0-9.72,0-19.44,0-29.15Zm13.28-20.29c1.52,1.33,1.71,2.98,1.7,4.71,0,7.26,0,14.53,0,21.79,0,4.21-.01,8.42,0,12.62,0,1.48,.04,1.51,1.44,1.52,2.99,.02,5.98,.07,8.96-.03,8.11-.27,13.81-4.55,16.04-12.3,1.71-5.94,1.64-11.94-.56-17.79-2.16-5.73-6.25-9.3-12.33-10.3-5.04-.83-10.14-.11-15.26-.22Z"/><path class="cls-2" d="M319.2,219.34c.06,.55-.34,.86-.61,1.23-5.86,8-11.73,16-17.6,24-1.13,1.54-2.45,2.9-4.41,4.1,4,1.62,5.73,5.04,7.78,8.18,5.15,7.92,10.3,15.83,15.44,23.75,.36,.56,.85,1.06,.95,1.73-.32,.61-.86,.4-1.29,.4-3.88,.02-7.75,0-11.63,.01-2.65,.01-4.62-1-6.1-3.32-4.37-6.88-8.92-13.65-13.28-20.54-1.39-2.19-3.12-3.27-5.7-3.15-1.55,.07-3.11,.01-4.95,.01,1.22,1.55,1.27,3.13,1.26,4.77-.04,6.59-.01,13.18-.02,19.78,0,2.7,.24,2.45-2.36,2.45-3.33,0-6.66,0-10,0-.41,0-.82-.03-1.22,0-.87,.06-1.26-.32-1.2-1.19,.03-.41,0-.82,0-1.22,0-19.57,0-39.14,0-58.72,0-2.8-.27-2.46,2.53-2.47,3.54-.02,7.07-.01,10.61,0,1.6,0,1.63,.03,1.63,1.53,.01,6.86,0,13.73,.02,20.59,0,1.34-.4,2.48-1.65,3.58,1.78,0,3.19,.06,4.6-.01,1.97-.1,3.39-1.08,4.51-2.72,4.28-6.29,8.7-12.49,12.9-18.83,1.92-2.9,4.33-4.29,7.81-4.16,3.53,.13,7.07,.02,10.61,.04,.45,0,.94-.17,1.35,.18Z"/><path class="cls-2" d="M146.81,282.74c-3.94,0-7.74,.06-11.54-.02-2.27-.05-3.85-1.32-4.63-3.41-1-2.67-1.81-5.41-2.79-8.08-.47-1.27,.43-1.82,1.41-2.63h-28.58q1.57,1.65,.86,3.79c-.69,2.06-1.38,4.12-2.09,6.17-1.02,2.98-2.64,4.17-5.74,4.19-3.13,.02-6.25,.01-9.38,0-.45,0-.94,.15-1.36-.22-.08-.64,.26-1.17,.47-1.73,7.67-19.81,15.34-39.62,23.01-59.42,.07-.19,.16-.38,.23-.57,.72-2,.72-1.65,2.48-1.65,3.81-.01,7.61,0,11.42,0,1.9,0,1.91,0,2.6,1.78,4.88,12.59,9.75,25.19,14.63,37.78,2.79,7.21,5.58,14.43,8.37,21.65,.26,.68,.67,1.33,.62,2.38Zm-23.27-24.48c-2.91-8.55-5.76-16.9-8.64-25.37-2.88,8.53-5.7,16.87-8.57,25.37h17.21Z"/><path class="cls-2" d="M368.4,230.58c1.58,1.36,1.62,2.9,1.62,4.47-.01,2.85-.01,5.71,0,8.56,0,1.66,.03,1.69,1.66,1.69,5.17,.01,10.33,0,15.5,0,.41,0,.82,0,1.22,0,1.53,.04,1.55,.04,1.56,1.62,.02,2.51,.01,5.03,0,7.54,0,1.78-.02,1.8-1.78,1.8-5.98,0-11.96,0-17.95,0h-1.81c1.57,1.38,1.59,2.99,1.59,4.61-.02,2.85-.01,5.71,0,8.56,0,1.89,.02,1.9,1.87,1.91,7.14,0,14.28,0,21.41,0,.41,0,.82,0,1.22,0,1.53,.04,1.55,.04,1.56,1.61,.02,2.72,.02,5.44,0,8.15-.01,1.61-.03,1.62-1.76,1.63-4.62,.01-9.24,0-13.87,0-7.68,0-15.36,0-23.04,0-.54,0-1.09,0-1.63-.02-.49-.01-.73-.29-.75-.77-.01-.48-.01-.95-.01-1.43,0-19.7,0-39.41,0-59.11,0-2.5-.24-2.27,2.32-2.27,12.17,0,24.34,0,36.5,0,2.38,0,2.24-.19,2.24,2.16,0,2.45,0,4.89,0,7.34,0,1.91-.02,1.92-1.86,1.92-5.78,0-11.56,0-17.33,0h-8.49Z"/><path class="cls-2" d="M173.32,252.08c.04-9.58,2.31-17.1,7.84-23.44,4.9-5.62,11.19-8.72,18.49-9.82,5.81-.88,11.52-.37,17.07,1.6,3.43,1.22,6.49,3.09,9.21,5.52,.72,.64,.97,1.12,.27,2-1.45,1.8-2.75,3.71-4.17,5.54-1.54,1.97-3.2,2.31-5.35,1.02-2.16-1.29-4.23-2.69-6.75-3.26-3.1-.7-6.19-.84-9.28-.02-5.63,1.5-9.06,5.34-10.81,10.69-1.89,5.77-1.97,11.65-.06,17.43,1.91,5.77,5.56,10.05,11.71,11.37,5.58,1.2,10.94,.61,15.56-3.28,2.18-1.84,3.43-1.71,5.43,.36,1.42,1.46,2.82,2.95,4.2,4.44,.97,1.05,.98,1.08,.04,2.18-2.24,2.62-4.88,4.76-8.05,6.11-8.98,3.83-18.12,4.1-27.15,.44-9.56-3.88-14.94-11.4-17.26-21.26-.69-2.92-1.02-5.89-.94-7.61Z"/><path class="cls-2" d="M453.75,270.91c7.33,0,14.66-.01,22,0,3.27,0,2.8-.38,2.83,2.79,.02,2.51,.02,5.03,0,7.54-.01,1.46-.04,1.49-1.46,1.5-2.04,.03-4.08,0-6.12,0-9.45,0-18.89,0-28.34,0-.48,0-.95-.02-1.43,0-.69,.03-1-.29-.98-.97,.01-.48,0-.95,0-1.43,0-19.63,0-39.26,0-58.89,0-.41,.03-.82,0-1.22-.05-.78,.29-1.09,1.07-1.08,4.21,.02,8.43,.02,12.64,0,.82,0,1.07,.39,1.03,1.13-.02,.34,0,.68,0,1.02,0,15.08,0,30.16,0,45.24,0,1.49,.17,3.04-1.23,4.37Z"/><path class="cls-3" d="M332.13,140.5c7.38-1.91,12.38-7.02,16.88-12.68,.81,.29,.99,.93,1.29,1.43,2.32,3.85,4.05,7.97,5.64,12.16,.98,2.6,1.08,5.26-.3,7.69-2.84,5.01-5.16,10.32-8.49,15.05-1.52,2.17-3.1,4.3-4.7,6.4-1.38,1.81-3.13,3.17-5.25,4.02-.29-.49-.1-.81,.11-1.19,.32-.57,.31-1.13-.26-1.64-1.17-1.06-1.6-2.48-1.79-4-.09-.75-.36-1.4-.82-2.04-1.32-1.84-1.63-3.98-1.62-6.19,.01-1.39,.74-2.47,1.61-3.43,.72-.79,.91-1.43,.47-2.49-.77-1.83-.28-3.23,1.3-4.48,.85-.67,1.78-1.25,2.64-1.91,1.5-1.16,1.44-2.21-.23-3.08-1.86-.97-3.78-1.83-5.67-2.74-.29-.14-.68-.17-.81-.89Z"/><path class="cls-3" d="M206.13,332.16c-1.42,0-2.64-.05-3.86,.02-.96,.06-1.1-.4-1.1-1.21,.02-6.04,.04-12.09,0-18.13,0-1.07,.34-1.45,1.4-1.39,2.71,.14,5.43-.21,8.13,.28,2.99,.54,5.02,2.07,5.46,4.44,.42,2.32,.22,5.05-2.92,7.01-.22,.14-.41,.33-.58,.47,2.15,2.53,3.54,5.46,5.56,8.49-1.91,0-3.49,.04-5.06-.02-.77-.02-1.11-.68-1.45-1.27-.88-1.53-1.76-3.06-2.65-4.58-.24-.41-.47-.84-.79-1.18-.48-.5-1.14-.43-1.72-.28-.65,.16-.4,.77-.4,1.2-.02,1.97-.01,3.93-.01,6.15Zm0-13.95c0,.61,.05,1.22-.01,1.82-.11,1.04,.41,1.31,1.31,1.21,.4-.04,.81-.04,1.21-.07,2.37-.16,3.17-2.04,2.65-4.05-.36-1.38-2.06-2.05-4.31-1.76-1.62,.21-.57,1.49-.84,2.25-.06,.18,0,.4,0,.6Z"/><path class="cls-3" d="M345.07,332.16c-1.28,0-2.44-.05-3.58,.01-1.08,.06-1.64-.47-1.95-1.4-.33-1.02-.35-2.4-1.15-2.95-.96-.67-2.37-.19-3.59-.23-.95-.03-1.91,.04-2.85-.02-.81-.05-1.31,.22-1.46,1.04-.01,.07-.03,.13-.05,.2-1.32,3.83-.74,3.32-4.82,3.35-.4,0-.8-.05-1.16-.07-.18-.51,.09-.85,.24-1.23,2.31-6,4.65-12,6.92-18.02,.4-1.06,.9-1.43,2.06-1.42,3.46,.03,3.46-.03,4.69,3.19,2.05,5.31,4.1,10.61,6.14,15.92,.19,.49,.34,1,.56,1.63Zm-7.89-8.15c-.62-2.55-1.56-4.86-2.43-7.47-1.15,2.53-1.83,4.96-2.67,7.47h5.1Z"/><path class="cls-3" d="M279.94,328.47v3.62h-13.2c0-1.76,0-3.45,0-5.14,0-4.62,0-9.23,0-13.85,0-1.62,.02-1.64,1.69-1.64,3.4,0,6.79,.03,10.19-.02,1.03-.02,1.55,.24,1.41,1.34-.03,.27,0,.54,0,.81-.02,1.75-.02,1.76-1.77,1.76-1.77,0-3.53,.05-5.3-.02-.92-.03-1.29,.16-1.31,1.21-.05,3.37-.1,3.37,3.19,3.37,.54,0,1.09-.04,1.63,.01,.57,.06,1.45-.33,1.61,.4,.22,.96,.24,2.02-.04,3.01-.1,.36-.57,.27-.9,.27-1.43,0-2.85,.04-4.28-.01-.83-.03-1.28,.16-1.19,1.11,.12,1.2-.47,2.7,.26,3.53,.68,.77,2.18,.21,3.32,.24,1.54,.05,3.09,.01,4.69,.01Z"/><path class="cls-3" d="M177.24,315.35v4.56c1.78,0,3.54,.04,5.3-.02,.91-.03,1.15,.31,1.12,1.17-.09,3.15,.35,2.46-2.38,2.53-1.29,.03-2.57,0-3.99,0v4.87c2.17,0,4.39,0,6.61,0,1.96,0,1.7-.12,1.71,1.77,0,.27-.03,.55,0,.81,.13,.93-.33,1.13-1.17,1.12-3.67-.03-7.34-.05-11,0-.99,.01-1.26-.3-1.25-1.28,.04-6.04,.05-12.08,0-18.12,0-1.13,.45-1.36,1.45-1.35,3.53,.04,7.06,.05,10.59,0,1.04-.01,1.43,.29,1.4,1.38-.09,3,.27,2.5-2.45,2.53-1.96,.02-3.92,0-5.95,0Z"/><path class="cls-3" d="M231.39,311.59c.19-.06,.32-.13,.44-.13,5.34-.05,4.3-.36,5.92,3.92,1.29,3.4,2.46,6.85,3.86,10.75,.33-.88,.51-1.34,.68-1.79,1.29-3.64,2.56-7.28,3.86-10.92,.64-1.79,.92-1.96,2.82-1.98,.94-.01,1.88,0,2.76,0,.25,.66-.02,1.08-.19,1.51-2.38,5.97-4.8,11.94-7.13,17.93-.38,.98-.86,1.39-1.91,1.29-1.01-.1-2.17,.21-3-.2-.85-.43-.89-1.73-1.27-2.65-2.14-5.27-4.26-10.55-6.35-15.84-.22-.55-.62-1.06-.49-1.89Z"/><path class="cls-3" d="M294.69,332.16c-.39-1.8,.18-3.07,1.11-4.36,2.88-4.01,5.66-8.09,8.7-12.46-2.1,0-3.89,0-5.68,0-.88,0-1.77,.04-2.65-.01-1.27-.07-.82-1.1-.77-1.7,.07-.74-.67-1.86,.73-2.16,.26-.06,.54-.02,.81-.02,4.15,0,8.29-.01,12.44,0,1.52,0,1.55,.11,1.52,1.63-.02,.96-.5,1.66-1.01,2.39-2.72,3.9-5.43,7.8-8.14,11.69-.22,.32-.44,.65-.88,1.3,1.59,0,2.91,0,4.23,0,1.5,0,2.99,.02,4.49,0,.65-.01,1.06,.14,.97,.89,0,.07,0,.14,0,.2q.12,2.6-2.52,2.6c-4.41,0-8.82,0-13.33,0Z"/><path class="cls-3" d="M157.15,329.22c-3.14,3.38-6.91,3.91-10.92,2.74-3.99-1.16-6.08-4.16-6.65-8.19-.31-2.16-.2-4.34,.74-6.38,1.76-3.81,4.79-5.75,8.92-6.05,2.5-.18,4.87,.21,6.96,1.71,1.28,.92,1.28,.99,.41,2.22-.16,.22-.32,.44-.49,.65-.97,1.22-1.23,1.32-2.51,.49-1.06-.69-2.14-1.08-3.42-1.05-2.46,.06-4.32,1.26-5.17,3.55-.76,2.05-.76,4.12,.1,6.15,1.25,2.98,4.54,4.21,7.44,2.81,.71-.34,1.22-1.22,2.14-1.01,.91,.22,1.3,1.14,1.96,1.71,.15,.13,.25,.32,.5,.63Z"/><path class="cls-2" d="M362.85,32.84c.1-.22,.21-.45,.31-.67,.34,.59,.53,1.2,.24,1.91-.41-.34-.51-.78-.55-1.24Z"/><path class="cls-2" d="M125.82,93.1c.36-.55,.8-1.01,1.47-1.17l.05,.05c-.07,.72-.55,1.16-1.08,1.57-.15-.15-.29-.3-.44-.44Z"/><path class="cls-1" d="M125.82,93.1c.15,.15,.29,.3,.44,.44-.07,.1-.14,.22-.23,.3-.21,.18-.41,.59-.75,.25-.34-.34,.08-.53,.25-.74,.08-.1,.19-.17,.28-.25Z"/><path class="cls-1" d="M293.29,138.37c.05-.21,.02-.58,.32-.46,.19,.08,.14,.46-.14,.62-.06-.06-.12-.11-.18-.16Z"/><path class="cls-2" d="M127.29,91.93l.19-.27c.23,.23,.03,.27-.14,.33l-.05-.05Z"/></g></svg>