<?xml version="1.0" encoding="UTF-8"?><svg id="Capa_2" xmlns="http://www.w3.org/2000/svg" viewBox="0 0 598.32 321.14"><defs><style>.cls-1{fill:#b4975c;}</style></defs><g id="Capa_1-2"><g><path class="cls-1" d="M233.47,1.34c1.22-1.3,2.81-.79,4.24-.79,15.63-.06,31.27,0,46.9-.16,3.07-.03,4.27,.52,4.25,4.01-.12,26.92-.01,53.84,.06,80.75,.01,4.78-1.43,8.7-6.79,11.29,7.23-.01,13.6,.33,19.92-.13,6.31-.46,10.92-3.99,14.53-9.29,16.68-24.54,33.66-48.87,50.28-73.46,5.78-8.55,13.39-13.17,23.62-13.26,16.43-.14,32.87-.09,49.27-.11,.66,1.63-.57,2.29-1.2,3.15-22.49,30.81-45,61.59-67.48,92.4-4.34,5.94-9.49,11.01-16.27,15.22,9.59,3.84,16.03,10.4,21.26,18.42,23.07,35.39,46.23,70.74,69.35,106.1,.43,.66,.82,1.35,1.61,2.67-10.05,.02-19.59,.04-29.13,.05-7.65,0-15.3,.03-22.95,0-8.62-.04-15.11-3.64-19.87-11.01-17.19-26.57-34.71-52.93-51.83-79.55-4.27-6.63-9.65-9.99-17.52-10.2-7.28-.19-14.52-.21-22.6,.35,4.87,3.14,5.96,7.28,5.95,12.16-.05,28.08-.02,56.16,.18,84.24,.03,3.52-.86,4.38-4.35,4.33-16.95-.25-33.91-.2-50.86-.26,.01-8.97,.02-22.46,.02-38.87-.02-54.83-.22-49.89-.12-67,.3-56.98-.08-78.22-.18-125.6,0-1.81-.19-3.63-.29-5.44Z"/><path class="cls-1" d="M175.27,211.43c-24.45,19.3-52.56,27.35-83.38,27.32-28.95-.03-57.9,.01-86.85,.21-3.58,.02-4.74-.63-4.7-4.51,.21-18.45,.12-36.9-.05-55.35-.03-3.6,.6-4.25,4.41-3.52,13.34,2.53,26.25,7.36,40.02,7.52,2.81,.03,5.63-.07,8.44-.18,5.82-.23,10.67-1.85,12.41-8.31,.35-1.29,1.05-2.76,3.31-3.9-1.68,7.23-3.2,13.77-4.72,20.31-.65,2.81-1.89,5.43,1.05,8.13,1.53,1.41-.08,4.05-.5,6.12-.54,2.66-.12,4.62,3.31,4.58,7.27-.08,14.54-.05,22.07-.06-1.02-3.66-3.69-5.32-6.28-7-3.17-2.07-4-4.69-2.15-8.05,3.48-6.36,9.03-11.48,11.14-18.68,.34-1.17,1.93-1.12,3.05-1.34,21.64-4.31,34.12-27.96,32.81-48.5-.63-9.93-2.1-19.83-1.61-29.82,.16-3.23-1.62-5.01-4.07-6.21-7.71-3.78-10.23-10.77-11.78-18.42-.12-.58-.11-1.34,1.04-1.62,2.14,1.25,2.07,3.85,2.7,5.85,2.87,9.16,10.79,11.52,18.53,13.91,3.18,.98,4.7-1.29,4.07-4.35-.59-2.88,.6-3.73,3.18-3.99,7.26-.74,14.5-2.17,21.77-2.28,7-.11,11.04-4.87,15.82-8.41,2.37-1.75,.06-3.38-1.73-4.46-8.07-4.89-15.96-10.11-24.92-13.32-2.43-.87-4.43-2.15-5.32-4.74-.57-1.67-1.83-2.77-3.35-3.52-21.88-10.81-38.25-8.18-50,14.23-5.71,10.89-9.84,22.5-13.14,34.21-2.6,9.23-9.56,12.07-16.8,13.59-13.16,2.77-26.75,2.2-40.18,2.48-6.32,.13-12.65-.07-18.97,.11-2.66,.08-3.72-.47-3.71-3.46C.22,72.25,.16,38.51,0,4.77-.01,1.71,.79,.84,3.89,.85c30.78,.06,61.57-.49,92.34,.03,34.14,.58,64.47,11.35,88.62,36.48,17.49,18.2,27.05,40.17,30.26,65.07,.83,6.45,1.12,12.9,.91,19.39-.08,10.86-1.68,30.67-12.32,52.37-8.98,18.31-20.71,30.43-28.43,37.25Zm-63.88-6.35c8.2-7.43,12.55-16.68,16.92-25.91,.78-1.66,.45-3.7-.24-5.35-1.78-4.25-3.3-8.65-6.37-12.76-4,5.51-8.96,9.68-15.67,12.21,2.23,1.07,3.89,1.8,5.49,2.65,1.01,.55,2.4,1.72,1.08,2.57-3.69,2.38-3.67,6.31-5.08,9.74-1.13,2.74-1.2,5.02-.09,7.57,1.24,2.84,2.44,5.7,3.97,9.28Z"/><path class="cls-1" d="M504.42,192.87c2.25,1.12,4.07,.67,5.81,.66,27.61-.01,55.23,.03,82.84-.22,4.21-.04,5.29,1.15,5.2,5.26-.26,11.63-.18,23.27,.04,34.9,.06,3.33-.6,4.51-4.26,4.51-45.08-.06-90.16,.03-135.25,.2-3.1,.01-4.18-.58-4.18-3.98-.02-76.62-.16-153.23-.36-229.85,0-3.08,.53-4.33,4.02-4.29,15.8,.17,31.61,.11,47.41-.06,3.01-.03,3.96,.71,3.96,3.85,0,59.17,.12,118.33,.25,177.5,0,4.64-1.02,8.74-5.48,11.52Z"/><path class="cls-1" d="M133.93,67.2c-3.89-7.15-.67-17.05-10.82-20.6,6.3-.61,9.3,1.41,10.33,6.77,.85,4.39,1.06,8.82,.49,13.83Z"/><path class="cls-1" d="M93.45,168.69c2.5-4.6,6.67-8.09,7.22-13.57,1.16,8.89-.92,12.66-7.22,13.57Z"/></g><g><path class="cls-1" d="M206.25,320.34c-3.11,0-5.79-.11-8.47,.04-2.11,.13-2.41-.88-2.41-2.65,.04-13.25,.09-26.52,0-39.77,0-2.35,.75-3.18,3.07-3.05,5.94,.31,11.91-.46,17.83,.61,6.56,1.18,11.01,4.54,11.98,9.74,.92,5.09,.48,11.08-6.4,15.38-.48,.31-.9,.72-1.27,1.03,4.72,5.55,7.76,11.98,12.2,18.62-4.19,0-7.66,.09-11.1-.04-1.69-.04-2.43-1.49-3.18-2.79-1.93-3.36-3.86-6.71-5.81-10.05-.53-.9-1.03-1.84-1.73-2.59-1.05-1.1-2.5-.94-3.77-.61-1.43,.35-.88,1.69-.88,2.63-.04,4.32-.02,8.62-.02,13.49h-.02Zm0-30.6c0,1.34,.11,2.68-.02,3.99-.24,2.28,.9,2.87,2.87,2.65,.88-.09,1.78-.09,2.65-.15,5.2-.35,6.95-4.47,5.81-8.88-.79-3.03-4.52-4.5-9.45-3.86-3.55,.46-1.25,3.27-1.84,4.94-.13,.39,0,.88,0,1.32h-.02Z"/><path class="cls-1" d="M511,320.34c-2.81,0-5.35-.11-7.85,.02-2.37,.13-3.6-1.03-4.28-3.07-.72-2.24-.77-5.26-2.52-6.47-2.11-1.47-5.2-.42-7.87-.5-2.08-.07-4.19,.09-6.25-.04-1.78-.11-2.87,.48-3.2,2.28-.02,.15-.07,.29-.11,.44-2.9,8.4-1.62,7.28-10.57,7.35-.88,0-1.75-.11-2.54-.15-.39-1.12,.2-1.86,.53-2.7,5.07-13.16,10.2-26.32,15.18-39.53,.88-2.33,1.97-3.14,4.52-3.11,7.59,.07,7.59-.07,10.29,7,4.5,11.65,8.99,23.27,13.47,34.92,.42,1.07,.75,2.19,1.23,3.58h0Zm-17.31-17.88c-1.36-5.59-3.42-10.66-5.33-16.38-2.52,5.55-4.01,10.88-5.86,16.38h11.19Z"/><path class="cls-1" d="M368.15,312.24v7.94h-28.95v-41.65c0-3.55,.04-3.6,3.71-3.6,7.46,0,14.89,.07,22.35-.04,2.26-.04,3.4,.53,3.09,2.94-.07,.59,0,1.18,0,1.78-.04,3.84-.04,3.86-3.88,3.86s-7.74,.11-11.63-.04c-2.02-.07-2.83,.35-2.87,2.65-.11,7.39-.22,7.39,7,7.39,1.18,0,2.39-.09,3.58,.02,1.25,.13,3.18-.72,3.53,.88,.48,2.11,.53,4.43-.09,6.6-.22,.79-1.25,.59-1.97,.59-3.14,0-6.25,.09-9.39-.02-1.82-.07-2.81,.35-2.61,2.43,.26,2.63-1.03,5.92,.57,7.74,1.49,1.69,4.78,.46,7.28,.53,3.38,.11,6.78,.02,10.29,.02v-.02Z"/><path class="cls-1" d="M142.88,283.47v10c3.9,0,7.76,.09,11.63-.04,2-.07,2.52,.68,2.46,2.57-.2,6.91,.77,5.4-5.22,5.55-2.83,.07-5.64,0-8.75,0v10.68h14.5c4.3,0,3.73-.26,3.75,3.88,0,.59-.07,1.21,0,1.78,.29,2.04-.72,2.48-2.57,2.46-8.05-.07-16.1-.11-24.13,0-2.17,.02-2.76-.66-2.74-2.81,.09-13.25,.11-26.5,0-39.75,0-2.48,.99-2.98,3.18-2.96,7.74,.09,15.49,.11,23.23,0,2.28-.02,3.14,.64,3.07,3.03-.2,6.58,.59,5.48-5.37,5.55-4.3,.04-8.6,0-13.05,0l.02,.07Z"/><path class="cls-1" d="M261.65,275.22c.42-.13,.7-.29,.97-.29,11.71-.11,9.43-.79,12.99,8.6,2.83,7.46,5.4,15.03,8.47,23.58,.72-1.93,1.12-2.94,1.49-3.93,2.83-7.98,5.62-15.97,8.47-23.95,1.4-3.93,2.02-4.3,6.19-4.34,2.06-.02,4.12,0,6.05,0,.55,1.45-.04,2.37-.42,3.31-5.22,13.09-10.53,26.19-15.64,39.33-.83,2.15-1.89,3.05-4.19,2.83-2.22-.22-4.76,.46-6.58-.44-1.86-.94-1.95-3.79-2.79-5.81-4.69-11.56-9.34-23.14-13.93-34.74-.48-1.21-1.36-2.33-1.07-4.15h0Z"/><path class="cls-1" d="M400.5,320.34c-.86-3.95,.39-6.73,2.43-9.56,6.32-8.8,12.41-17.74,19.08-27.33h-12.46c-1.93,0-3.88,.09-5.81-.02-2.79-.15-1.8-2.41-1.69-3.73,.15-1.62-1.47-4.08,1.6-4.74,.57-.13,1.18-.04,1.78-.04,9.1,0,18.18-.02,27.29,0,3.33,0,3.4,.24,3.33,3.58-.04,2.11-1.1,3.64-2.22,5.24-5.97,8.55-11.91,17.11-17.85,25.64-.48,.7-.97,1.43-1.93,2.85h9.28c3.29,0,6.56,.04,9.85,0,1.43-.02,2.33,.31,2.13,1.95v.44c.18,3.8-1.67,5.7-5.53,5.7h-29.24l-.04,.02Z"/><path class="cls-1" d="M98.81,313.89c-6.89,7.41-15.16,8.58-23.95,6.01-8.75-2.54-13.34-9.12-14.59-17.96-.68-4.74-.44-9.52,1.62-13.99,3.86-8.36,10.51-12.61,19.57-13.27,5.48-.39,10.68,.46,15.27,3.75,2.81,2.02,2.81,2.17,.9,4.87-.35,.48-.7,.97-1.07,1.43-2.13,2.68-2.7,2.9-5.51,1.07-2.33-1.51-4.69-2.37-7.5-2.3-5.4,.13-9.48,2.76-11.34,7.79-1.67,4.5-1.67,9.04,.22,13.49,2.74,6.54,9.96,9.23,16.32,6.16,1.56-.75,2.68-2.68,4.69-2.22,2,.48,2.85,2.5,4.3,3.75,.33,.29,.55,.7,1.1,1.38l-.02,.04Z"/></g></g></svg>